<svg width="103" height="22" viewBox="0 0 103 22" fill="none" xmlns="http://www.w3.org/2000/svg">
<path d="M7.71094 7V9.5H0.484375V7H7.71094ZM2.125 4.125H5.45313V15.3125C5.45313 15.6198 5.5 15.8594 5.59375 16.0312C5.6875 16.1979 5.81771 16.3151 5.98438 16.3828C6.15625 16.4505 6.35417 16.4844 6.57813 16.4844C6.73438 16.4844 6.89063 16.4714 7.04688 16.4453C7.20312 16.4141 7.32292 16.3906 7.40625 16.375L7.92969 18.8516C7.76302 18.9036 7.52865 18.9635 7.22656 19.0313C6.92448 19.1042 6.55729 19.1484 6.125 19.1641C5.32292 19.1953 4.61979 19.0885 4.01563 18.8437C3.41667 18.599 2.95052 18.2187 2.61719 17.7031C2.28385 17.1875 2.11979 16.5365 2.125 15.75V4.125ZM9.87891 19V7H13.1055V9.09375H13.2305C13.4492 8.34896 13.8164 7.78646 14.332 7.40625C14.8477 7.02083 15.4414 6.82812 16.1133 6.82812C16.2799 6.82812 16.4596 6.83854 16.6523 6.85937C16.8451 6.88021 17.0143 6.90885 17.1602 6.94531V9.89844C17.0039 9.85156 16.7878 9.8099 16.5117 9.77344C16.2357 9.73698 15.9831 9.71875 15.7539 9.71875C15.2643 9.71875 14.8268 9.82552 14.4414 10.0391C14.0612 10.2474 13.7591 10.5391 13.5352 10.9141C13.3164 11.2891 13.207 11.7214 13.207 12.2109V19H9.87891ZM23.791 19.2344C22.5566 19.2344 21.4941 18.9844 20.6035 18.4844C19.7181 17.9792 19.0358 17.2656 18.5566 16.3437C18.0775 15.4167 17.8379 14.3203 17.8379 13.0547C17.8379 11.8203 18.0775 10.737 18.5566 9.80469C19.0358 8.8724 19.7103 8.14583 20.5801 7.625C21.4551 7.10417 22.4811 6.84375 23.6582 6.84375C24.4499 6.84375 25.1868 6.97135 25.8691 7.22656C26.5566 7.47656 27.1556 7.85417 27.666 8.35937C28.1816 8.86458 28.5827 9.5 28.8691 10.2656C29.1556 11.026 29.2988 11.9167 29.2988 12.9375V13.8516H19.166V11.7891H26.166C26.166 11.3099 26.0618 10.8854 25.8535 10.5156C25.6452 10.1458 25.3561 9.85677 24.9863 9.64844C24.6217 9.4349 24.1973 9.32812 23.7129 9.32812C23.2077 9.32812 22.7598 9.44531 22.3691 9.67969C21.9837 9.90885 21.6816 10.2187 21.4629 10.6094C21.2441 10.9948 21.1322 11.4245 21.127 11.8984V13.8594C21.127 14.4531 21.2363 14.9661 21.4551 15.3984C21.679 15.8307 21.9941 16.1641 22.4004 16.3984C22.8066 16.6328 23.2884 16.75 23.8457 16.75C24.2155 16.75 24.554 16.6979 24.8613 16.5938C25.1686 16.4896 25.4316 16.3333 25.6504 16.125C25.8691 15.9167 26.0358 15.6615 26.1504 15.3594L29.2285 15.5625C29.0723 16.3021 28.752 16.9479 28.2676 17.5C27.7884 18.0469 27.1686 18.474 26.4082 18.7813C25.653 19.0833 24.7806 19.2344 23.791 19.2344ZM31.4707 19V7H34.7988V19H31.4707ZM33.1426 5.45312C32.6478 5.45312 32.2233 5.28906 31.8691 4.96094C31.5202 4.6276 31.3457 4.22917 31.3457 3.76562C31.3457 3.30729 31.5202 2.91406 31.8691 2.58594C32.2233 2.2526 32.6478 2.08594 33.1426 2.08594C33.6374 2.08594 34.0592 2.2526 34.4082 2.58594C34.7624 2.91406 34.9395 3.30729 34.9395 3.76562C34.9395 4.22917 34.7624 4.6276 34.4082 4.96094C34.0592 5.28906 33.6374 5.45312 33.1426 5.45312ZM40.793 12.0625V19H37.4648V7H40.6367V9.11719H40.7773C41.043 8.41927 41.4883 7.86719 42.1133 7.46094C42.7383 7.04948 43.4961 6.84375 44.3867 6.84375C45.2201 6.84375 45.9466 7.02604 46.5664 7.39062C47.1862 7.75521 47.668 8.27604 48.0117 8.95312C48.3555 9.625 48.5273 10.4271 48.5273 11.3594V19H45.1992V11.9531C45.2044 11.2187 45.0169 10.6458 44.6367 10.2344C44.2565 9.81771 43.7331 9.60937 43.0664 9.60937C42.6185 9.60937 42.2227 9.70573 41.8789 9.89844C41.5404 10.0911 41.2747 10.3724 41.082 10.7422C40.8945 11.1068 40.7982 11.5469 40.793 12.0625ZM56.6191 19.2344C55.3848 19.2344 54.3223 18.9844 53.4316 18.4844C52.5462 17.9792 51.8639 17.2656 51.3848 16.3437C50.9056 15.4167 50.666 14.3203 50.666 13.0547C50.666 11.8203 50.9056 10.737 51.3848 9.80469C51.8639 8.8724 52.5384 8.14583 53.4082 7.625C54.2832 7.10417 55.3092 6.84375 56.4863 6.84375C57.278 6.84375 58.015 6.97135 58.6973 7.22656C59.3848 7.47656 59.9837 7.85417 60.4941 8.35937C61.0098 8.86458 61.4108 9.5 61.6973 10.2656C61.9837 11.026 62.127 11.9167 62.127 12.9375V13.8516H51.9941V11.7891H58.9941C58.9941 11.3099 58.89 10.8854 58.6816 10.5156C58.4733 10.1458 58.1842 9.85677 57.8145 9.64844C57.4499 9.4349 57.0254 9.32812 56.541 9.32812C56.0358 9.32812 55.5879 9.44531 55.1973 9.67969C54.8118 9.90885 54.5098 10.2187 54.291 10.6094C54.0723 10.9948 53.9603 11.4245 53.9551 11.8984V13.8594C53.9551 14.4531 54.0645 14.9661 54.2832 15.3984C54.5072 15.8307 54.8223 16.1641 55.2285 16.3984C55.6348 16.6328 56.1165 16.75 56.6738 16.75C57.0436 16.75 57.3822 16.6979 57.6895 16.5938C57.9967 16.4896 58.2598 16.3333 58.4785 16.125C58.6973 15.9167 58.8639 15.6615 58.9785 15.3594L62.0566 15.5625C61.9004 16.3021 61.5801 16.9479 61.0957 17.5C60.6165 18.0469 59.9967 18.474 59.2363 18.7813C58.4811 19.0833 57.6087 19.2344 56.6191 19.2344ZM66.2441 19.2031C65.7285 19.2031 65.2858 19.0208 64.916 18.6562C64.5514 18.2865 64.3691 17.8437 64.3691 17.3281C64.3691 16.8177 64.5514 16.3802 64.916 16.0156C65.2858 15.651 65.7285 15.4687 66.2441 15.4687C66.7441 15.4687 67.1816 15.651 67.5566 16.0156C67.9316 16.3802 68.1191 16.8177 68.1191 17.3281C68.1191 17.6719 68.0306 17.987 67.8535 18.2734C67.6816 18.5547 67.4551 18.7812 67.1738 18.9531C66.8926 19.1198 66.5827 19.2031 66.2441 19.2031ZM70.8516 19V7H74.0234V9.11719H74.1641C74.4141 8.41406 74.8307 7.85937 75.4141 7.45312C75.9974 7.04687 76.6953 6.84375 77.5078 6.84375C78.3307 6.84375 79.0313 7.04948 79.6094 7.46094C80.1875 7.86719 80.5729 8.41927 80.7656 9.11719H80.8906C81.1354 8.42969 81.5781 7.88021 82.2188 7.46875C82.8646 7.05208 83.6276 6.84375 84.5078 6.84375C85.6276 6.84375 86.5365 7.20052 87.2344 7.91406C87.9375 8.6224 88.2891 9.6276 88.2891 10.9297V19H84.9688V11.5859C84.9688 10.9193 84.7917 10.4193 84.4375 10.0859C84.0833 9.7526 83.6406 9.58594 83.1094 9.58594C82.5052 9.58594 82.0339 9.77865 81.6953 10.1641C81.3568 10.5443 81.1875 11.0469 81.1875 11.6719V19H77.9609V11.5156C77.9609 10.9271 77.7917 10.4583 77.4531 10.1094C77.1198 9.76042 76.6797 9.58594 76.1328 9.58594C75.763 9.58594 75.4297 9.67969 75.1328 9.86719C74.8411 10.0495 74.6094 10.3073 74.4375 10.6406C74.2656 10.9687 74.1797 11.3542 74.1797 11.7969V19H70.8516ZM96.3867 19.2344C95.1523 19.2344 94.0898 18.9844 93.1992 18.4844C92.3138 17.9792 91.6315 17.2656 91.1523 16.3437C90.6732 15.4167 90.4336 14.3203 90.4336 13.0547C90.4336 11.8203 90.6732 10.737 91.1523 9.80469C91.6315 8.8724 92.306 8.14583 93.1758 7.625C94.0508 7.10417 95.0768 6.84375 96.2539 6.84375C97.0456 6.84375 97.7826 6.97135 98.4648 7.22656C99.1523 7.47656 99.7513 7.85417 100.262 8.35937C100.777 8.86458 101.178 9.5 101.465 10.2656C101.751 11.026 101.895 11.9167 101.895 12.9375V13.8516H91.7617V11.7891H98.7617C98.7617 11.3099 98.6576 10.8854 98.4492 10.5156C98.2409 10.1458 97.9518 9.85677 97.582 9.64844C97.2174 9.4349 96.793 9.32812 96.3086 9.32812C95.8034 9.32812 95.3555 9.44531 94.9648 9.67969C94.5794 9.90885 94.2773 10.2187 94.0586 10.6094C93.8398 10.9948 93.7279 11.4245 93.7227 11.8984V13.8594C93.7227 14.4531 93.832 14.9661 94.0508 15.3984C94.2747 15.8307 94.5898 16.1641 94.9961 16.3984C95.4023 16.6328 95.8841 16.75 96.4414 16.75C96.8112 16.75 97.1497 16.6979 97.457 16.5938C97.7643 16.4896 98.0273 16.3333 98.2461 16.125C98.4648 15.9167 98.6315 15.6615 98.7461 15.3594L101.824 15.5625C101.668 16.3021 101.348 16.9479 100.863 17.5C100.384 18.0469 99.7643 18.474 99.0039 18.7813C98.2487 19.0833 97.3763 19.2344 96.3867 19.2344Z" fill="#89C5CC"/>
</svg>
